<svg width="25" height="21" viewBox="0 0 25 21" fill="none" xmlns="http://www.w3.org/2000/svg">
<path d="M21.0513 10.4233V13.6584C21.0513 15.1237 16.5008 16.3059 10.892 16.2988C5.28328 16.2917 0.722229 15.0907 0.724855 13.6277V10.3926L21.0513 10.4233Z" fill="#FFD200"/>
<path d="M21.0335 14.3217V17.5568C21.0335 19.0245 16.4829 20.2043 10.8768 20.1973C5.2707 20.1902 0.725403 18.9938 0.728028 17.5261V14.291L21.0335 14.3217Z" fill="#FFD200"/>
<path opacity="0.08" d="M21.0335 14.3217V17.5568C21.0335 19.0245 16.4829 20.2043 10.8768 20.1973C5.2707 20.1902 0.725403 18.9938 0.728028 17.5261V14.291L21.0335 14.3217Z" fill="black"/>
<path d="M20.8404 14.2169C20.8432 12.7639 16.3417 11.5789 10.786 11.5701C5.23032 11.5614 0.724241 12.7323 0.721419 14.1854C0.718596 15.6385 5.2201 16.8235 10.7758 16.8322C16.3315 16.8409 20.8376 15.67 20.8404 14.2169Z" fill="#FFD200"/>
<path opacity="0.08" d="M21.0513 10.4233V13.6584C21.0513 15.1237 16.5008 16.3059 10.892 16.2988C5.28328 16.2917 0.722229 15.0907 0.724855 13.6277V10.3926L21.0513 10.4233Z" fill="black"/>
<path d="M20.3096 6.55607V9.79116C20.3096 11.2589 15.759 12.4387 10.1503 12.4316C4.54151 12.4245 -0.00115984 11.2282 0.00146598 9.76049V6.52539L20.3096 6.55607Z" fill="#FFD200"/>
<path d="M21.0525 2.65983V5.88784C21.0525 7.35319 16.5019 8.53538 10.8932 8.52595C5.28443 8.51651 0.74176 7.32252 0.744386 5.85717V2.62207L21.0525 2.65983Z" fill="#FFD200"/>
<path d="M20.8475 10.3595C20.8503 8.90645 16.3488 7.72143 10.7931 7.71272C5.2374 7.70401 0.731321 8.87489 0.728499 10.328C0.725676 11.781 5.22718 12.966 10.7829 12.9748C16.3386 12.9835 20.8447 11.8126 20.8475 10.3595Z" fill="#FFD200"/>
<path opacity="0.08" d="M20.3096 6.55607V9.79116C20.3096 11.2589 15.759 12.4387 10.1503 12.4316C4.54151 12.4245 -0.00115984 11.2282 0.00146598 9.76049V6.52539L20.3096 6.55607Z" fill="black"/>
<path d="M20.124 6.52448C20.1267 5.07141 15.6251 3.8862 10.0694 3.87723C4.51373 3.86827 0.00771177 5.03895 0.00496801 6.49203C0.00222425 7.9451 4.50379 9.13031 10.0595 9.13928C15.6152 9.14824 20.1212 7.97756 20.124 6.52448Z" fill="#FFD200"/>
<path opacity="0.08" d="M21.0525 2.65983V5.88784C21.0525 7.35319 16.5019 8.53538 10.8932 8.52595C5.28443 8.51651 0.74176 7.32252 0.744386 5.85717V2.62207L21.0525 2.65983Z" fill="black"/>
<path opacity="0.08" d="M16.5902 21.0004C20.7538 21.0004 24.129 17.9673 24.129 14.2258C24.129 10.4843 20.7538 7.45117 16.5902 7.45117C12.4267 7.45117 9.05151 10.4843 9.05151 14.2258C9.05151 17.9673 12.4267 21.0004 16.5902 21.0004Z" fill="black"/>
<path opacity="0.08" d="M11.5786 7.44336C11.5786 7.44336 3.54696 9.00528 4.81523 19.7441C4.81523 19.7441 11.4366 20.5555 13.8444 20.0146C16.0291 19.512 11.5786 7.44336 11.5786 7.44336Z" fill="black"/>
<path d="M21.0555 2.66256C21.0583 1.20948 16.5133 0.0244064 10.9039 0.0156086C5.29457 0.0068107 0.744993 1.17762 0.742171 2.6307C0.739348 4.08377 5.28435 5.26885 10.8937 5.27765C16.5031 5.28645 21.0527 4.11563 21.0555 2.66256Z" fill="#FFD200"/>
<path d="M16.5902 21.0004C20.7538 21.0004 24.129 17.9673 24.129 14.2258C24.129 10.4843 20.7538 7.45117 16.5902 7.45117C12.4267 7.45117 9.05151 10.4843 9.05151 14.2258C9.05151 17.9673 12.4267 21.0004 16.5902 21.0004Z" fill="#FFD200"/>
<g opacity="0.08">
<path d="M16.9589 18.9593C21.1224 18.9593 24.4976 15.9263 24.4976 12.1848C24.4976 8.44325 21.1224 5.41016 16.9589 5.41016C12.7954 5.41016 9.42017 8.44325 9.42017 12.1848C9.42017 15.9263 12.7954 18.9593 16.9589 18.9593Z" fill="black"/>
</g>
<path opacity="0.08" d="M16.5902 21.0004C20.7538 21.0004 24.129 17.9673 24.129 14.2258C24.129 10.4843 20.7538 7.45117 16.5902 7.45117C12.4267 7.45117 9.05151 10.4843 9.05151 14.2258C9.05151 17.9673 12.4267 21.0004 16.5902 21.0004Z" fill="black"/>
<path d="M16.9589 18.9584C21.1224 18.9584 24.4976 15.9253 24.4976 12.1838C24.4976 8.44227 21.1224 5.40918 16.9589 5.40918C12.7954 5.40918 9.42017 8.44227 9.42017 12.1838C9.42017 15.9253 12.7954 18.9584 16.9589 18.9584Z" fill="#FFD200"/>
<path d="M17.1266 9.19865C17.3393 9.19865 17.4049 9.26472 17.4049 9.45821V9.86407C17.7796 9.89991 18.1364 10.0267 18.4371 10.2307C18.7377 10.4348 18.9709 10.7086 19.1117 11.0227C19.222 11.2232 19.1747 11.3318 18.9253 11.4309L18.471 11.6149C18.2583 11.707 18.1559 11.6645 18.0351 11.4639C17.94 11.2567 17.7733 11.0825 17.5596 10.9669C17.3459 10.8514 17.0965 10.8006 16.8483 10.8221C16.0605 10.8221 15.7008 11.0321 15.7008 11.5064C15.719 11.6512 15.7926 11.7859 15.909 11.8874C16.0253 11.989 16.1772 12.0511 16.3389 12.0633C16.5584 12.1086 16.7813 12.1394 17.0058 12.1553C17.4267 12.174 17.8423 12.2471 18.2399 12.3724C18.4387 12.4303 18.6239 12.5207 18.7861 12.639C18.9503 12.7941 19.0784 12.9771 19.1627 13.1773C19.2471 13.3775 19.286 13.5908 19.2771 13.8047C19.2771 14.7132 18.5997 15.3291 17.4049 15.4871V15.9213C17.4049 16.1125 17.3393 16.1785 17.1266 16.1785H16.6172C16.4045 16.1785 16.331 16.1125 16.331 15.9213V15.4966C15.9151 15.472 15.5168 15.3368 15.1867 15.1082C14.8566 14.8797 14.6096 14.568 14.4771 14.2129C14.457 14.1758 14.4466 14.135 14.4468 14.0936C14.447 14.0523 14.4578 14.0115 14.4784 13.9746C14.4989 13.9376 14.5287 13.9054 14.5654 13.8804C14.6021 13.8555 14.6447 13.8384 14.6898 13.8307L15.1441 13.6796C15.3752 13.6041 15.4776 13.6561 15.58 13.8637C15.7822 14.3356 16.1997 14.5716 16.8299 14.5716C17.6833 14.5716 18.1087 14.3356 18.1087 13.8401C18.1165 13.7262 18.0814 13.6132 18.009 13.5194C17.9365 13.4257 17.8311 13.3566 17.7095 13.3233C17.4146 13.2295 17.1057 13.1762 16.7931 13.1652C16.368 13.1449 15.949 13.0653 15.5511 12.9293C15.2234 12.8364 14.9414 12.6449 14.7525 12.3871C14.5635 12.1292 14.4793 11.8207 14.5139 11.5135C14.5139 10.6144 15.1441 10.0127 16.331 9.86171V9.45585C16.331 9.26236 16.4045 9.19629 16.6172 9.19629L17.1266 9.19865Z" fill="white"/>
</svg>
