<svg width="35" height="34" viewBox="0 0 35 34" fill="none" xmlns="http://www.w3.org/2000/svg">
<path d="M30.9328 6.60449C31.753 7.64859 32.4475 8.7829 33.002 9.98467L17.2723 21.4002L10.6985 17.3432V12.4624L17.2723 16.5194L30.9328 6.60449Z" fill="#21A038"/>
<path d="M3.98936 16.9994C3.98936 16.7804 3.99478 16.5628 4.00563 16.3465L0.0216972 16.1543C0.00813719 16.4346 4.8144e-06 16.7177 4.8144e-06 17.0033C-0.00169024 19.2352 0.444227 21.4454 1.31219 23.5072C2.18014 25.5691 3.45305 27.4419 5.05789 29.0182L7.8838 26.2374C6.64845 25.0262 5.66844 23.5864 5.0001 22.001C4.33176 20.4157 3.98827 18.7158 3.98936 16.9994Z" fill="url(#paint0_linear_194_1835)"/>
<path d="M17.2687 3.92682C17.4911 3.92682 17.712 3.93484 17.9317 3.94551L18.131 0.0219897C17.8455 0.00863985 17.5579 0.00196573 17.2687 0.00196573C15.0006 -0.000757312 12.7544 0.437616 10.6589 1.29191C8.56339 2.14621 6.65995 3.39961 5.05786 4.98014L7.88377 7.76224C9.11418 6.54564 10.5767 5.58047 12.1874 4.92226C13.798 4.26404 15.5248 3.92574 17.2687 3.92682Z" fill="url(#paint1_linear_194_1835)"/>
<path d="M17.2688 30.0733C17.0464 30.0733 16.8253 30.0733 16.6044 30.0559L16.405 33.9781C16.6916 33.9924 16.9795 33.9995 17.2688 33.9995C19.5359 34.0018 21.7811 33.5632 23.8754 32.7086C25.9698 31.8541 27.872 30.6005 29.4729 29.02L26.6524 26.2393C25.4217 27.4552 23.9593 28.4198 22.349 29.0778C20.7388 29.7358 19.0123 30.0741 17.2688 30.0733Z" fill="url(#paint2_linear_194_1835)"/>
<path d="M24.7541 6.20771L28.1115 3.77136C25.0428 1.32494 21.2122 -0.00679098 17.2634 2.60422e-05V3.92622C19.9373 3.92295 22.5492 4.71849 24.7541 6.20771Z" fill="url(#paint3_linear_194_1835)"/>
<path d="M34.5361 17.0005C34.5382 15.9792 34.4475 14.9596 34.2648 13.9541L30.5481 16.6508C30.5481 16.767 30.5481 16.8831 30.5481 17.0005C30.549 18.8272 30.1601 20.6337 29.4066 22.3028C28.653 23.972 27.5515 25.4666 26.1736 26.6898L28.8544 29.6069C30.6458 28.0147 32.0773 26.0698 33.056 23.8982C34.0349 21.7264 34.5391 19.3764 34.5361 17.0005Z" fill="#21A038"/>
<path d="M17.2689 30.0733C15.4133 30.0739 13.5783 29.6909 11.8826 28.949C10.1871 28.2071 8.66859 27.1229 7.42561 25.7666L4.46411 28.4045C6.08109 30.1684 8.05658 31.5779 10.2625 32.5418C12.4684 33.5056 14.8554 34.0022 17.2689 33.9994V30.0733Z" fill="url(#paint4_linear_194_1835)"/>
<path d="M8.36383 7.3105L5.68437 4.39355C3.89251 5.98536 2.46051 7.93018 1.48124 10.1019C0.501985 12.2736 -0.0026698 14.6237 1.06218e-05 16.9998H3.98937C3.98855 15.1733 4.37753 13.3668 5.1311 11.6976C5.88468 10.0285 6.98604 8.53385 8.36383 7.3105Z" fill="url(#paint5_linear_194_1835)"/>
<defs>
<linearGradient id="paint0_linear_194_1835" x1="5.86471" y1="28.5283" x2="1.62663" y2="16.084" gradientUnits="userSpaceOnUse">
<stop offset="0.14" stop-color="#F1E813"/>
<stop offset="0.3" stop-color="#E6E418"/>
<stop offset="0.58" stop-color="#C9DA26"/>
<stop offset="0.89" stop-color="#A2CC39"/>
</linearGradient>
<linearGradient id="paint1_linear_194_1835" x1="6.1969" y1="5.67433" x2="17.3782" y2="1.3462" gradientUnits="userSpaceOnUse">
<stop offset="0.06" stop-color="#0FA7DF"/>
<stop offset="0.54" stop-color="#0098F8"/>
<stop offset="0.92" stop-color="#0290EA"/>
</linearGradient>
<linearGradient id="paint2_linear_194_1835" x1="16.142" y1="31.6299" x2="28.8173" y2="28.7213" gradientUnits="userSpaceOnUse">
<stop offset="0.12" stop-color="#A2CC39"/>
<stop offset="0.28" stop-color="#86C239"/>
<stop offset="0.87" stop-color="#219F38"/>
</linearGradient>
<linearGradient id="paint3_linear_194_1835" x1="16.4336" y1="1.31499" x2="27.2572" y2="4.70768" gradientUnits="userSpaceOnUse">
<stop offset="0.06" stop-color="#0290EA"/>
<stop offset="0.79" stop-color="#0C89CA"/>
</linearGradient>
<linearGradient id="paint4_linear_194_1835" x1="5.46484" y1="27.9266" x2="17.2326" y2="32.3939" gradientUnits="userSpaceOnUse">
<stop offset="0.13" stop-color="#F1E813"/>
<stop offset="0.3" stop-color="#EAE616"/>
<stop offset="0.53" stop-color="#D8DF1F"/>
<stop offset="0.8" stop-color="#BAD52D"/>
<stop offset="0.98" stop-color="#A2CC39"/>
</linearGradient>
<linearGradient id="paint5_linear_194_1835" x1="1.48619" y1="17.475" x2="6.10056" y2="5.28244" gradientUnits="userSpaceOnUse">
<stop offset="0.07" stop-color="#A2CC39"/>
<stop offset="0.26" stop-color="#81C45E"/>
<stop offset="0.92" stop-color="#0FA7DF"/>
</linearGradient>
</defs>
</svg>
